<svg width="760" height="120" viewBox="0 0 760 120" xmlns="http://www.w3.org/2000/svg" font-family="'Segoe UI', system-ui, sans-serif">
  <defs>
    <filter id="shadow" x="-5%" y="-5%" width="110%" height="130%">
      <feDropShadow dx="0" dy="2" stdDeviation="3" flood-color="#00000030"/>
    </filter>
  </defs>

  <!-- Background -->
  <rect width="760" height="120" rx="12" fill="#1a1a2e"/>

  <!-- Title -->
  <text x="380" y="22" text-anchor="middle" fill="#aaaacc" font-size="11" font-weight="600" letter-spacing="2">SEVERIDADE  ·  CORES ZABBIX SERVER</text>

  <!-- Resolved -->
  <g filter="url(#shadow)">
    <rect x="12" y="32" width="82" height="76" rx="8" fill="#449626"/>
    <text x="53" y="58" text-anchor="middle" font-size="20">✅</text>
    <text x="53" y="76" text-anchor="middle" fill="white" font-size="9" font-weight="700">RESOLVIDO</text>
    <text x="53" y="98" text-anchor="middle" fill="#ffffff99" font-size="8">#449626</text>
  </g>

  <!-- Not classified -->
  <g filter="url(#shadow)">
    <rect x="106" y="32" width="82" height="76" rx="8" fill="#97AAB3"/>
    <text x="147" y="58" text-anchor="middle" font-size="20">⬜</text>
    <text x="147" y="76" text-anchor="middle" fill="white" font-size="8" font-weight="700">NOT CLASSIFIED</text>
    <text x="147" y="98" text-anchor="middle" fill="#ffffff99" font-size="8">#97AAB3</text>
  </g>

  <!-- Information -->
  <g filter="url(#shadow)">
    <rect x="200" y="32" width="82" height="76" rx="8" fill="#7499FF"/>
    <text x="241" y="58" text-anchor="middle" font-size="20">ℹ️</text>
    <text x="241" y="76" text-anchor="middle" fill="white" font-size="9" font-weight="700">INFORMATION</text>
    <text x="241" y="98" text-anchor="middle" fill="#ffffff99" font-size="8">#7499FF</text>
  </g>

  <!-- Warning -->
  <g filter="url(#shadow)">
    <rect x="294" y="32" width="82" height="76" rx="8" fill="#E6A800"/>
    <text x="335" y="58" text-anchor="middle" font-size="20">⚠️</text>
    <text x="335" y="76" text-anchor="middle" fill="#1a1a2e" font-size="9" font-weight="700">WARNING</text>
    <text x="335" y="98" text-anchor="middle" fill="#1a1a2e99" font-size="8">#E6A800</text>
  </g>

  <!-- Average -->
  <g filter="url(#shadow)">
    <rect x="388" y="32" width="82" height="76" rx="8" fill="#D45E00"/>
    <text x="429" y="58" text-anchor="middle" font-size="20">🟠</text>
    <text x="429" y="76" text-anchor="middle" fill="#1a1a2e" font-size="9" font-weight="700">AVERAGE</text>
    <text x="429" y="98" text-anchor="middle" fill="#1a1a2e99" font-size="8">#D45E00</text>
  </g>

  <!-- High -->
  <g filter="url(#shadow)">
    <rect x="482" y="32" width="82" height="76" rx="8" fill="#C0392B"/>
    <text x="523" y="58" text-anchor="middle" font-size="20">🔴</text>
    <text x="523" y="76" text-anchor="middle" fill="white" font-size="9" font-weight="700">HIGH</text>
    <text x="523" y="98" text-anchor="middle" fill="#ffffff99" font-size="8">#C0392B</text>
  </g>

  <!-- Disaster -->
  <g filter="url(#shadow)">
    <rect x="576" y="32" width="82" height="76" rx="8" fill="#7B0C0C"/>
    <text x="617" y="58" text-anchor="middle" font-size="20">💥</text>
    <text x="617" y="76" text-anchor="middle" fill="white" font-size="9" font-weight="700">DISASTER</text>
    <text x="617" y="98" text-anchor="middle" fill="#ffffff99" font-size="8">#7B0C0C</text>
  </g>

  <!-- Update -->
  <g filter="url(#shadow)">
    <rect x="670" y="32" width="82" height="76" rx="8" fill="#1F98FF"/>
    <text x="711" y="58" text-anchor="middle" font-size="20">🔄</text>
    <text x="711" y="76" text-anchor="middle" fill="white" font-size="9" font-weight="700">ATUALIZAÇÃO</text>
    <text x="711" y="98" text-anchor="middle" fill="#ffffff99" font-size="8">#1F98FF</text>
  </g>
</svg>
